<?xml version="1.0" encoding="utf-8"?>
<!-- Generator: Adobe Illustrator 14.0.0, SVG Export Plug-In . SVG Version: 6.00 Build 43363)  -->
<!DOCTYPE svg PUBLIC "-//W3C//DTD SVG 1.1//EN" "http://www.w3.org/Graphics/SVG/1.1/DTD/svg11.dtd">
<svg version="1.1" id="Layer_1" xmlns="http://www.w3.org/2000/svg" xmlns:xlink="http://www.w3.org/1999/xlink" x="0px" y="0px"
	 width="16px" height="112px" viewBox="0 0 16 112" enable-background="new 0 0 16 112" xml:space="preserve">
<path fill-rule="evenodd" clip-rule="evenodd" fill="#151515" d="M16.281,8.913c-0.641,0-1.281,0-1.92,0
	c-0.186,2.135,0.447,5.087-0.48,6.479c-1.36,0-2.721,0-4.08,0c0-1.84,0-3.681,0-5.521c-0.727-0.554-2.476-0.084-3.6-0.24
	c0,1.921,0,3.841,0,5.761c-1.396-0.124-3.311,0.27-4.32-0.24c0-2,0-4,0-6C1.625,8.608,0.372,9.062-0.28,8.913
	c2.666-3.015,4.887-6.474,8.641-8.4C11.027,3.285,14.209,5.545,16.281,8.913z"/>
<path fill-rule="evenodd" clip-rule="evenodd" fill="#151515" d="M9.06,27.59c-1.103-0.104-2.65,0.237-3.394-0.226
	c-1.053-3.281,3.847-3.794,4.072-6.109c0.283-2.912-3.917-3.147-4.072,0.227c-1.131,0-2.262,0-3.394,0
	c-0.897-9.23,15.339-5.549,10.633,1.81c-0.686,1.071-1.93,1.335-3.167,2.262C9.275,25.994,9.386,27.011,9.06,27.59z"/>
<path fill-rule="evenodd" clip-rule="evenodd" fill="#151515" d="M9.585,28.337c1.694,3.594-3.304,4.721-4.072,2.263
	C4.803,28.328,7.509,26.567,9.585,28.337z"/>
<path fill-rule="evenodd" clip-rule="evenodd" fill="#151515" d="M14.818,33.111c0.035,1.173-0.449,1.828-0.91,2.507
	c-2.529-0.66-6.72-0.984-7.294,1.596c1.139,0,2.278,0,3.419,0c0.348,0.415,0.348,1.864,0,2.279c-1.219,0.148-3.035-0.3-3.875,0.229
	c0.432,1.011,2.697,0.188,3.875,0.455c0.348,0.414,0.348,1.864,0,2.278c-1.141,0-2.28,0-3.419,0
	c0.389,3.135,4.655,2.596,7.522,2.052c0.102,0.963,0.898,1.229,0.682,2.508c-4.771,2.39-11.011,0.061-11.623-4.56
	c-0.713-0.046-1.673,0.154-2.051-0.228c0-0.606,0-1.215,0-1.823c0.237-0.522,1.627,0.108,1.824-0.456
	c0.15-0.985-1.597-0.075-1.824-0.684c0-0.608,0-1.216,0-1.823c0.378-0.382,1.338-0.182,2.051-0.228
	C4.181,32.993,10.365,30.397,14.818,33.111z"/>
<path fill-rule="evenodd" clip-rule="evenodd" fill="#151515" d="M10.571,58.281c1.977,1.019,4.931,1.06,5.134,3.851
	c-2.964,2.575-11.823,2.124-15.401,0.428c-0.199-3.193,2.602-3.389,4.92-4.064c-0.111-2.372-1.433-2.34-1.711-3.851
	c-1.681-9.134,10.309-8.604,8.771-0.213C11.996,56.004,10.835,56.313,10.571,58.281z"/>
<path fill-rule="evenodd" clip-rule="evenodd" fill="#151515" d="M0.221,65.32c1.396,0.569,2.383,1.545,3.627,2.267
	c4.083,0.835,9.199-1.527,11.333,0.906c1.775,2.023,0.085,5.883,0.682,9.521c-4.942-1.16-13.03,2.155-15.188-1.359
	C-1.002,73.922,0.978,69.436,0.221,65.32z"/>
<path fill-rule="evenodd" clip-rule="evenodd" fill="#151515" d="M0.262,82.52c5.171,0,10.341,0,15.511,0
	c-0.015,1.394-2.056,1.781-3.473,2.546c-1.237,0.668-2.792,2.068-4.167,2.084C6.773,87.166,0.694,83.849,0.262,82.52z"/>
<path fill-rule="evenodd" clip-rule="evenodd" fill="#151515" d="M0.262,85.065c3.122,0.453,4.801,3.645,7.64,3.705
	c2.952,0.063,4.832-3.292,8.103-3.705c-0.141,2.329,0.29,5.23-0.231,7.178c-4.118,0.903-10.781,0.478-15.279,0.231
	C-0.309,90.863-0.049,87.029,0.262,85.065z"/>
<path fill-rule="evenodd" clip-rule="evenodd" fill="#151515" d="M4.038,99.649c0.405,0.416,0.063,1.58,0.176,2.288
	c2.465,0,4.93,0,7.396,0c0.402-0.301,0.064-1.343,0.175-1.937c0.527-0.198,1.428,0.899,2.113,1.585
	c0.748,0.749,1.397,1.657,2.113,2.112c-1.131,1.57-2.951,3.389-4.227,4.226c0-0.704,0-1.408,0-2.112c-2.465,0-4.93,0-7.395,0
	c-0.403,0.302-0.064,1.344-0.176,1.937c-0.527,0.197-1.428-0.899-2.113-1.584c-0.748-0.749-1.398-1.658-2.112-2.113
	C1.06,102.305,2.82,101.248,4.038,99.649z"/>
</svg>
