<?xml version="1.0" encoding="utf-8"?>
<!-- Generator: Adobe Illustrator 14.0.0, SVG Export Plug-In . SVG Version: 6.00 Build 43363)  -->
<!DOCTYPE svg PUBLIC "-//W3C//DTD SVG 1.1//EN" "http://www.w3.org/Graphics/SVG/1.1/DTD/svg11.dtd">
<svg version="1.1" id="Layer_1" xmlns="http://www.w3.org/2000/svg" xmlns:xlink="http://www.w3.org/1999/xlink" x="0px" y="0px"
	 width="16px" height="112px" viewBox="0 0 16 112" enable-background="new 0 0 16 112" xml:space="preserve">
<path fill-rule="evenodd" clip-rule="evenodd" fill="#151515" d="M3.12,105.76v1.5l-3-3,3-3v1.49h9v-1.49l3,3-3,3v-1.5Z"/>
<path fill-rule="evenodd" clip-rule="evenodd" fill="#151515" d="M13.19,83.06H2A1.87,1.87,0,0,0,.14,84.93v7.46A1.86,1.86,0,0,0,2,94.25H13.19a1.87,1.87,0,0,0,1.87-1.86V84.93A1.87,1.87,0,0,0,13.19,83.06Zm-3.07,5,4-3.38a.76.76,0,0,1,0,.27v7.46a1.13,1.13,0,0,1,0,.18Zm3.07-4a1.13,1.13,0,0,1,.18,0L7.6,89,1.83,84A1,1,0,0,1,2,84ZM1.11,92.57a1.16,1.16,0,0,1,0-.18V84.93a.76.76,0,0,1,.06-.27L5.07,88Zm.89.75a.76.76,0,0,1-.26-.06l4-4.61,1.51,1.29a.47.47,0,0,0,.31.12.44.44,0,0,0,.3-.12l1.52-1.29,4,4.61a.82.82,0,0,1-.27.06Z"/>
<path fill-rule="evenodd" clip-rule="evenodd" fill="#151515" d="M13.06,70.79l-.38-.9a16.46,16.46,0,0,0,.8-2.07l-1.17-1.15a16,16,0,0,0-2.07.84l-.93-.38a16.42,16.42,0,0,0-.92-2H6.74a14.76,14.76,0,0,0-.87,2L5,67.51a18.79,18.79,0,0,0-2.11-.79L1.67,67.87a15.44,15.44,0,0,0,.85,2l-.38.9a18.53,18.53,0,0,0-2.07.9v1.62a15.05,15.05,0,0,0,2.07.85l.38.9a18.17,18.17,0,0,0-.81,2.07l1.17,1.15A16.1,16.1,0,0,0,5,77.46l.92.37a15.14,15.14,0,0,0,.93,2H8.46a16.1,16.1,0,0,0,.87-2l.92-.37a16.45,16.45,0,0,0,2.11.79l1.17-1.14a15.58,15.58,0,0,0-.85-2l.38-.9a18.53,18.53,0,0,0,2.07-.9V71.64A16.42,16.42,0,0,0,13.06,70.79ZM10,72.48A2.41,2.41,0,1,1,7.6,70.12,2.39,2.39,0,0,1,10,72.48Z"/>
<path fill-rule="evenodd" clip-rule="evenodd" fill="#151515" d="M7.66,49.19a7,7,0,1,0,7,7A7,7,0,0,0,7.66,49.19Zm3.47,10.13a.48.48,0,0,1-.67,0L7.68,56.85,4.9,59.32a.47.47,0,0,1-.66,0,.48.48,0,0,1,0-.67l3.1-2.74a.47.47,0,0,1,.34-.14A.5.5,0,0,1,8,55.9l3.11,2.75A.48.48,0,0,1,11.13,59.32Zm0-3.34a.47.47,0,0,1-.67,0L7.68,53.52,4.9,56a.47.47,0,0,1-.66-.66l3.1-2.75a.51.51,0,0,1,.68,0l3.11,2.75A.47.47,0,0,1,11.13,56Z"/>
<path fill-rule="evenodd" clip-rule="evenodd" fill="#151515" d="M1.56,44.34H.69a.44.44,0,0,1-.44-.43.44.44,0,0,1,.44-.44h.87a.44.44,0,0,1,.44.44A.44.44,0,0,1,1.56,44.34ZM14.2,34.75V45.22A1.74,1.74,0,0,1,12.46,47H2.87a1.74,1.74,0,0,1-1.75-1.74h.44a1.31,1.31,0,0,0,0-2.62H1.12V37.37h.44a1.31,1.31,0,0,0,0-2.62H1.12A1.74,1.74,0,0,1,2.87,33h9.59A1.74,1.74,0,0,1,14.2,34.75Zm-.87,0a.87.87,0,0,0-.87-.87H4.61V46.09h7.85a.87.87,0,0,0,.87-.87ZM.69,36.5h.87a.44.44,0,1,0,0-.88H.69a.44.44,0,1,0,0,.88ZM12,34.75H5.92a.44.44,0,0,0-.44.44.44.44,0,0,0,.44.43H12a.44.44,0,0,0,.44-.43A.44.44,0,0,0,12,34.75Zm0,1.75H5.92a.44.44,0,0,0-.44.43.44.44,0,0,0,.44.44H12a.44.44,0,0,0,.44-.44A.44.44,0,0,0,12,36.5Zm0,1.74H5.92a.44.44,0,0,0-.44.44.44.44,0,0,0,.44.43H12a.44.44,0,0,0,.44-.43A.44.44,0,0,0,12,38.24ZM12,40H5.92a.44.44,0,1,0,0,.88H12A.44.44,0,1,0,12,40Zm0,1.75H5.92a.44.44,0,1,0,0,.87H12a.44.44,0,1,0,0-.87ZM9.41,43.47H5.92a.44.44,0,0,0-.44.44.44.44,0,0,0,.44.43H9.41a.43.43,0,0,0,.43-.43A.44.44,0,0,0,9.41,43.47Z"/>
<path fill-rule="evenodd" clip-rule="evenodd" fill="#151515" d="M11.34,17.48A6.81,6.81,0,0,0,.93,24.13v5.3a.48.48,0,0,0,.48.49.49.49,0,0,0,.48-.49V29a1.93,1.93,0,0,0,3.86,0V27a1.93,1.93,0,0,0-3.86,0V24.13a5.79,5.79,0,1,1,11.57,0V27A1.93,1.93,0,0,0,9.6,27V29a1.93,1.93,0,0,0,3.86,0v.48a.49.49,0,1,0,1,0v-5.3A6.83,6.83,0,0,0,11.34,17.48Z"/>
<path fill-rule="evenodd" clip-rule="evenodd" fill="#151515" d="M14.67,8l-7-7-7,7A.91.91,0,0,0,2,9.27L2.23,9v4.42H13.12V9l.26.26A.91.91,0,0,0,14.67,8Zm-2.46,4.54H9.49V8.9H5.86v3.63H3.14V8.1L7.68,3.56,12.21,8.1Z"/>
</svg>