<?xml version="1.0" encoding="UTF-8" standalone="no"?>
<!-- Generator: Adobe Illustrator 14.0.0, SVG Export Plug-In . SVG Version: 6.00 Build 43363)  -->

<svg
   xmlns:dc="http://purl.org/dc/elements/1.1/"
   xmlns:cc="http://creativecommons.org/ns#"
   xmlns:rdf="http://www.w3.org/1999/02/22-rdf-syntax-ns#"
   xmlns:svg="http://www.w3.org/2000/svg"
   xmlns="http://www.w3.org/2000/svg"
   xmlns:sodipodi="http://sodipodi.sourceforge.net/DTD/sodipodi-0.dtd"
   xmlns:inkscape="http://www.inkscape.org/namespaces/inkscape"
   version="1.1"
   id="Layer_1"
   x="0px"
   y="0px"
   width="16px"
   height="112px"
   viewBox="0 0 16 112"
   enable-background="new 0 0 16 112"
   xml:space="preserve"
   sodipodi:docname="cd-nav-icons1.svg"
   inkscape:version="0.92.3 (2405546, 2018-03-11)"><metadata
   id="metadata3783"><rdf:RDF><cc:Work
       rdf:about=""><dc:format>image/svg+xml</dc:format><dc:type
         rdf:resource="http://purl.org/dc/dcmitype/StillImage" /></cc:Work></rdf:RDF></metadata><defs
   id="defs3781" /><sodipodi:namedview
   pagecolor="#ffffff"
   bordercolor="#666666"
   borderopacity="1"
   objecttolerance="10"
   gridtolerance="10"
   guidetolerance="10"
   inkscape:pageopacity="0"
   inkscape:pageshadow="2"
   inkscape:window-width="1920"
   inkscape:window-height="1027"
   id="namedview3779"
   showgrid="false"
   showguides="true"
   inkscape:guide-bbox="true"
   inkscape:zoom="5.9599"
   inkscape:cx="-8.3610867"
   inkscape:cy="53.386586"
   inkscape:window-x="-8"
   inkscape:window-y="-8"
   inkscape:window-maximized="1"
   inkscape:current-layer="Layer_1"><sodipodi:guide
     position="11.577375,112.08242"
     orientation="0,1"
     id="guide3785"
     inkscape:locked="false" /></sodipodi:namedview>
<path
   d="m 3.556636,73.8 v 1.5 l -3.00000015,-3 3.00000015,-3 v 1.49 h 9 V 69.3 l 3,3 -3,3 v -1.5 z"
   id="path3764"
   inkscape:connector-curvature="0"
   style="clip-rule:evenodd;fill:#151515;fill-rule:evenodd" />


<path
   fill-rule="evenodd"
   clip-rule="evenodd"
   fill="#151515"
   d="M1.56,44.34H.69a.44.44,0,0,1-.44-.43.44.44,0,0,1,.44-.44h.87a.44.44,0,0,1,.44.44A.44.44,0,0,1,1.56,44.34ZM14.2,34.75V45.22A1.74,1.74,0,0,1,12.46,47H2.87a1.74,1.74,0,0,1-1.75-1.74h.44a1.31,1.31,0,0,0,0-2.62H1.12V37.37h.44a1.31,1.31,0,0,0,0-2.62H1.12A1.74,1.74,0,0,1,2.87,33h9.59A1.74,1.74,0,0,1,14.2,34.75Zm-.87,0a.87.87,0,0,0-.87-.87H4.61V46.09h7.85a.87.87,0,0,0,.87-.87ZM.69,36.5h.87a.44.44,0,1,0,0-.88H.69a.44.44,0,1,0,0,.88ZM12,34.75H5.92a.44.44,0,0,0-.44.44.44.44,0,0,0,.44.43H12a.44.44,0,0,0,.44-.43A.44.44,0,0,0,12,34.75Zm0,1.75H5.92a.44.44,0,0,0-.44.43.44.44,0,0,0,.44.44H12a.44.44,0,0,0,.44-.44A.44.44,0,0,0,12,36.5Zm0,1.74H5.92a.44.44,0,0,0-.44.44.44.44,0,0,0,.44.43H12a.44.44,0,0,0,.44-.43A.44.44,0,0,0,12,38.24ZM12,40H5.92a.44.44,0,1,0,0,.88H12A.44.44,0,1,0,12,40Zm0,1.75H5.92a.44.44,0,1,0,0,.87H12a.44.44,0,1,0,0-.87ZM9.41,43.47H5.92a.44.44,0,0,0-.44.44.44.44,0,0,0,.44.43H9.41a.43.43,0,0,0,.43-.43A.44.44,0,0,0,9.41,43.47Z"
   id="path3770" />
<path
   fill-rule="evenodd"
   clip-rule="evenodd"
   fill="#151515"
   d="M11.34,17.48A6.81,6.81,0,0,0,.93,24.13v5.3a.48.48,0,0,0,.48.49.49.49,0,0,0,.48-.49V29a1.93,1.93,0,0,0,3.86,0V27a1.93,1.93,0,0,0-3.86,0V24.13a5.79,5.79,0,1,1,11.57,0V27A1.93,1.93,0,0,0,9.6,27V29a1.93,1.93,0,0,0,3.86,0v.48a.49.49,0,1,0,1,0v-5.3A6.83,6.83,0,0,0,11.34,17.48Z"
   id="path3772" />
<path
   fill-rule="evenodd"
   clip-rule="evenodd"
   fill="#151515"
   d="M14.67,8l-7-7-7,7A.91.91,0,0,0,2,9.27L2.23,9v4.42H13.12V9l.26.26A.91.91,0,0,0,14.67,8Zm-2.46,4.54H9.49V8.9H5.86v3.63H3.14V8.1L7.68,3.56,12.21,8.1Z"
   id="path3774" />
<path
   d="M 13.53,50.98 H 2.34 a 1.87,1.87 0 0 0 -1.86,1.87 v 7.46 a 1.86,1.86 0 0 0 1.86,1.86 h 11.19 a 1.87,1.87 0 0 0 1.87,-1.86 v -7.46 a 1.87,1.87 0 0 0 -1.87,-1.87 z m -3.07,5 4,-3.38 a 0.76,0.76 0 0 1 0,0.27 v 7.46 a 1.13,1.13 0 0 1 0,0.18 z m 3.07,-4 a 1.13,1.13 0 0 1 0.18,0 l -5.77,4.94 -5.77,-5 a 1,1 0 0 1 0.17,0 z M 1.45,60.49 a 1.16,1.16 0 0 1 0,-0.18 v -7.46 a 0.76,0.76 0 0 1 0.06,-0.27 l 3.9,3.34 z m 0.89,0.75 A 0.76,0.76 0 0 1 2.08,61.18 l 4,-4.61 1.51,1.29 a 0.47,0.47 0 0 0 0.31,0.12 0.44,0.44 0 0 0 0.3,-0.12 l 1.52,-1.29 4,4.61 a 0.82,0.82 0 0 1 -0.27,0.06 z"
   id="path3776"
   inkscape:connector-curvature="0"
   style="clip-rule:evenodd;fill:#151515;fill-rule:evenodd" />
</svg>